<?xml version="1.0" encoding="utf-8"?>
<!-- Generator: Adobe Illustrator 25.0.0, SVG Export Plug-In . SVG Version: 6.00 Build 0)  -->
<svg version="1.1" id="Capa_1" xmlns="http://www.w3.org/2000/svg" xmlns:xlink="http://www.w3.org/1999/xlink" x="0px" y="0px"
	 viewBox="0 0 1651.17 1080" style="enable-background:new 0 0 1651.17 1080;" xml:space="preserve">
<style type="text/css">
	.st0{fill:#020202;}
	.st1{fill:#FFFFFF;}
	.st2{fill:#C5EFEC;}
	.st3{fill:none;stroke:#FFFFFF;stroke-width:0.75;stroke-miterlimit:10;}
	.st4{fill:url(#SVGID_1_);}
	.st5{fill:#F3F7FF;}
	.st6{fill:url(#SVGID_2_);}
	.st7{fill:url(#SVGID_3_);}
	.st8{fill:url(#SVGID_4_);}
	.st9{fill:url(#SVGID_5_);}
	.st10{fill:url(#SVGID_6_);}
	.st11{fill:#448481;}
	.st12{fill:#59B2B0;}
	.st13{fill:#1F293D;}
	.st14{fill:#353D54;}
	.st15{fill:#8CF4EE;}
	.st16{fill:url(#SVGID_7_);}
	.st17{fill:url(#SVGID_8_);}
	.st18{fill:url(#SVGID_9_);}
	.st19{fill:url(#SVGID_10_);}
	.st20{fill:url(#SVGID_11_);}
	.st21{fill:url(#SVGID_12_);}
	.st22{fill:url(#SVGID_13_);}
	.st23{fill:url(#SVGID_14_);}
	.st24{fill:url(#SVGID_15_);}
	.st25{fill:url(#SVGID_16_);}
	.st26{fill:url(#SVGID_17_);}
	.st27{fill:url(#SVGID_18_);}
	.st28{fill:url(#SVGID_19_);}
	.st29{fill:url(#SVGID_20_);}
	.st30{fill:url(#SVGID_21_);}
	.st31{fill:url(#SVGID_22_);}
	.st32{fill:url(#SVGID_23_);}
	.st33{fill:url(#SVGID_24_);}
	.st34{fill:url(#SVGID_25_);}
	.st35{fill:url(#SVGID_26_);}
	.st36{fill:url(#SVGID_27_);}
	.st37{fill:url(#SVGID_28_);}
	.st38{fill:url(#SVGID_29_);}
	.st39{fill:url(#SVGID_30_);}
	.st40{fill:url(#SVGID_31_);}
	.st41{fill:url(#SVGID_32_);}
	.st42{fill:url(#SVGID_33_);}
	.st43{fill:url(#SVGID_34_);}
	.st44{fill:url(#SVGID_35_);}
	.st45{fill:url(#SVGID_36_);}
	.st46{fill:url(#SVGID_37_);}
	.st47{fill:url(#SVGID_38_);}
	.st48{fill:url(#SVGID_39_);}
	.st49{fill:url(#SVGID_40_);}
	.st50{fill:url(#SVGID_41_);}
	.st51{fill:url(#SVGID_42_);}
	.st52{fill:url(#SVGID_43_);}
	.st53{fill:url(#SVGID_44_);}
	.st54{fill:url(#SVGID_45_);}
	.st55{fill:url(#SVGID_46_);}
	.st56{fill:url(#SVGID_47_);}
	.st57{fill:url(#SVGID_48_);}
	.st58{fill:url(#SVGID_49_);}
	.st59{fill:url(#SVGID_50_);}
	.st60{fill:url(#SVGID_51_);}
	.st61{fill:url(#SVGID_52_);}
	.st62{fill:url(#SVGID_53_);}
	.st63{fill:url(#SVGID_54_);}
	.st64{fill:url(#SVGID_55_);}
	.st65{fill:url(#SVGID_56_);}
	.st66{fill:url(#SVGID_57_);}
	.st67{fill:url(#SVGID_58_);}
	.st68{fill:url(#SVGID_59_);}
	.st69{fill:url(#SVGID_60_);}
	.st70{fill:url(#SVGID_61_);}
	.st71{fill:url(#SVGID_62_);}
	.st72{fill:url(#SVGID_63_);}
	.st73{fill:url(#SVGID_64_);}
	.st74{fill:url(#SVGID_65_);}
	.st75{fill:url(#SVGID_66_);}
	.st76{fill:url(#SVGID_67_);}
	.st77{fill:url(#SVGID_68_);}
	.st78{fill:url(#SVGID_69_);}
	.st79{fill:url(#SVGID_70_);}
	.st80{fill:url(#SVGID_71_);}
	.st81{fill:url(#SVGID_72_);}
	.st82{fill:url(#SVGID_73_);}
	.st83{fill:url(#SVGID_74_);}
	.st84{fill:url(#SVGID_75_);}
	.st85{fill:url(#SVGID_76_);}
	.st86{fill:url(#SVGID_77_);}
	.st87{fill:url(#SVGID_78_);}
	.st88{fill:url(#SVGID_79_);}
	.st89{fill:url(#SVGID_80_);}
	.st90{fill:url(#SVGID_81_);}
	.st91{fill:url(#SVGID_82_);}
	.st92{fill:url(#SVGID_83_);}
	.st93{fill:url(#SVGID_84_);}
	.st94{fill:url(#SVGID_85_);}
	.st95{fill:url(#SVGID_86_);}
	.st96{fill:url(#SVGID_87_);}
	.st97{fill:url(#SVGID_88_);}
	.st98{fill:url(#SVGID_89_);}
	.st99{fill:url(#SVGID_90_);}
	.st100{fill:url(#SVGID_91_);}
	.st101{fill:url(#SVGID_92_);}
	.st102{fill:url(#SVGID_93_);}
</style>
<g>
	<g>
		<path class="st1" d="M233.56,689.41c-1.64-0.75-2.92-1.79-3.86-3.13c-0.94-1.34-1.44-2.84-1.5-4.49h3.46
			c0.15,1.59,0.86,2.98,2.1,4.19c1.24,1.2,3.07,1.8,5.47,1.8c2.21,0,3.97-0.57,5.26-1.71c1.29-1.14,1.94-2.58,1.94-4.33
			c0-1.4-0.36-2.53-1.08-3.39c-0.72-0.86-1.6-1.5-2.66-1.92c-1.06-0.42-2.53-0.88-4.4-1.38c-2.18-0.59-3.91-1.17-5.19-1.73
			c-1.28-0.56-2.37-1.43-3.27-2.62c-0.9-1.19-1.36-2.79-1.36-4.82c0-1.68,0.44-3.19,1.31-4.51c0.87-1.32,2.1-2.36,3.69-3.11
			c1.59-0.75,3.41-1.12,5.47-1.12c3.02,0,5.46,0.74,7.32,2.22c1.85,1.48,2.92,3.39,3.2,5.73h-3.55c-0.22-1.34-0.95-2.53-2.2-3.58
			s-2.93-1.57-5.05-1.57c-1.97,0-3.6,0.52-4.91,1.57c-1.31,1.04-1.97,2.47-1.97,4.28c0,1.37,0.36,2.48,1.08,3.32
			c0.72,0.84,1.61,1.48,2.69,1.92c1.08,0.44,2.53,0.9,4.37,1.4c2.12,0.59,3.84,1.18,5.14,1.75c1.31,0.58,2.42,1.46,3.32,2.64
			c0.91,1.19,1.36,2.78,1.36,4.77c0,1.53-0.41,2.98-1.22,4.35c-0.81,1.37-2.01,2.48-3.6,3.32c-1.59,0.84-3.49,1.26-5.71,1.26
			C237.09,690.54,235.19,690.16,233.56,689.41z"/>
		<path class="st1" d="M256.03,659.16c-0.47-0.47-0.7-1.04-0.7-1.73c0-0.68,0.23-1.25,0.7-1.71c0.47-0.45,1.03-0.68,1.68-0.68
			c0.66,0,1.22,0.23,1.68,0.68c0.47,0.45,0.7,1.02,0.7,1.71c0,0.69-0.23,1.26-0.7,1.73c-0.47,0.47-1.03,0.7-1.68,0.7
			C257.06,659.86,256.49,659.63,256.03,659.16z M259.35,664.68v25.53h-3.27v-25.53H259.35z"/>
		<path class="st1" d="M304.5,667.04c1.89,1.89,2.83,4.62,2.83,8.21v14.96h-3.23v-14.59c0-2.78-0.67-4.89-2.01-6.36
			c-1.34-1.47-3.16-2.2-5.47-2.2c-2.4,0-4.32,0.79-5.75,2.38s-2.15,3.9-2.15,6.92v13.84h-3.23v-14.59c0-2.78-0.67-4.89-2.01-6.36
			c-1.34-1.47-3.18-2.2-5.52-2.2c-2.4,0-4.32,0.79-5.75,2.38s-2.15,3.9-2.15,6.92v13.84h-3.27v-25.53h3.27v4.39
			c0.81-1.59,1.96-2.8,3.46-3.62c1.5-0.83,3.16-1.24,5-1.24c2.21,0,4.15,0.53,5.82,1.59s2.87,2.62,3.62,4.68
			c0.68-2.03,1.86-3.58,3.53-4.65c1.67-1.08,3.56-1.61,5.68-1.61C300.17,664.21,302.61,665.15,304.5,667.04z"/>
		<path class="st1" d="M321.66,666.01c1.76-1.14,3.86-1.71,6.29-1.71c2.31,0,4.39,0.54,6.24,1.61c1.85,1.07,3.3,2.6,4.35,4.58
			c1.04,1.98,1.57,4.28,1.57,6.9c0,2.62-0.52,4.93-1.57,6.92c-1.05,2-2.5,3.54-4.35,4.63c-1.85,1.09-3.94,1.64-6.24,1.64
			c-2.4,0-4.49-0.57-6.27-1.71c-1.78-1.14-3.07-2.57-3.88-4.28v17.67h-3.23v-37.59h3.23v5.61
			C318.61,668.57,319.89,667.15,321.66,666.01z M335.54,671.9c-0.83-1.54-1.96-2.72-3.39-3.53c-1.44-0.81-3.06-1.22-4.86-1.22
			c-1.75,0-3.34,0.42-4.79,1.26c-1.45,0.84-2.6,2.04-3.44,3.6c-0.84,1.56-1.26,3.37-1.26,5.42c0,2.06,0.42,3.87,1.26,5.42
			c0.84,1.56,1.99,2.76,3.44,3.6c1.45,0.84,3.05,1.26,4.79,1.26c1.81,0,3.43-0.41,4.86-1.24c1.43-0.83,2.56-2.03,3.39-3.6
			s1.24-3.41,1.24-5.49C336.78,675.28,336.37,673.44,335.54,671.9z"/>
		<path class="st1" d="M349.41,655.6v34.6h-3.27v-34.6H349.41z"/>
		<path class="st1" d="M379.85,678.7h-21.18c0.09,1.93,0.56,3.59,1.4,4.96c0.84,1.37,1.95,2.41,3.32,3.11
			c1.37,0.7,2.87,1.05,4.49,1.05c2.12,0,3.91-0.51,5.35-1.54c1.45-1.03,2.41-2.42,2.88-4.16h3.46c-0.62,2.49-1.96,4.53-4,6.1
			c-2.04,1.57-4.61,2.36-7.69,2.36c-2.4,0-4.55-0.54-6.45-1.61s-3.39-2.6-4.47-4.58s-1.61-4.29-1.61-6.95
			c0-2.65,0.53-4.97,1.59-6.97c1.06-2,2.54-3.52,4.44-4.58c1.9-1.06,4.07-1.59,6.5-1.59c2.43,0,4.56,0.53,6.38,1.59
			c1.82,1.06,3.23,2.49,4.21,4.28c0.98,1.79,1.47,3.78,1.47,5.96C379.94,677.25,379.91,678.11,379.85,678.7z M375.48,671.18
			c-0.8-1.34-1.88-2.35-3.25-3.04c-1.37-0.68-2.87-1.03-4.49-1.03c-2.43,0-4.51,0.78-6.22,2.34c-1.71,1.56-2.66,3.76-2.85,6.59
			h17.96C376.65,674.14,376.27,672.52,375.48,671.18z"/>
		<path class="st1" d="M398.81,670.5c1.04-1.98,2.49-3.51,4.35-4.58c1.85-1.08,3.95-1.61,6.29-1.61c2.43,0,4.53,0.56,6.29,1.68
			c1.76,1.12,3.03,2.56,3.81,4.3v-5.61h3.27v25.53h-3.27v-5.66c-0.81,1.75-2.1,3.19-3.86,4.33c-1.76,1.14-3.86,1.71-6.29,1.71
			c-2.31,0-4.39-0.54-6.24-1.64c-1.86-1.09-3.31-2.63-4.35-4.63c-1.04-1.99-1.57-4.3-1.57-6.92
			C397.24,674.78,397.76,672.48,398.81,670.5z M418.29,672.02c-0.84-1.56-1.99-2.76-3.44-3.6c-1.45-0.84-3.05-1.26-4.79-1.26
			c-1.81,0-3.43,0.41-4.86,1.22c-1.43,0.81-2.56,1.99-3.39,3.53c-0.83,1.54-1.24,3.38-1.24,5.5c0,2.09,0.41,3.92,1.24,5.49
			s1.96,2.78,3.39,3.6c1.43,0.83,3.06,1.24,4.86,1.24c1.75,0,3.34-0.42,4.79-1.26c1.45-0.84,2.6-2.04,3.44-3.6
			c0.84-1.56,1.26-3.37,1.26-5.42C419.55,675.38,419.13,673.58,418.29,672.02z"/>
		<path class="st1" d="M449.76,667.04c1.93,1.89,2.9,4.62,2.9,8.21v14.96h-3.23v-14.59c0-2.78-0.69-4.89-2.08-6.36
			c-1.39-1.47-3.28-2.2-5.68-2.2c-2.46,0-4.43,0.78-5.89,2.34c-1.47,1.56-2.2,3.85-2.2,6.88v13.93h-3.27v-25.53h3.27v4.35
			c0.81-1.56,1.98-2.75,3.51-3.58c1.53-0.83,3.26-1.24,5.19-1.24C445.33,664.21,447.82,665.15,449.76,667.04z"/>
		<path class="st1" d="M460,670.5c1.06-1.98,2.52-3.51,4.37-4.58c1.85-1.08,3.95-1.61,6.29-1.61c2.25,0,4.27,0.55,6.08,1.64
			c1.81,1.09,3.13,2.51,3.97,4.25V655.6h3.27v34.6h-3.27v-5.7c-0.78,1.78-2.06,3.23-3.83,4.37c-1.78,1.14-3.87,1.71-6.27,1.71
			c-2.34,0-4.44-0.54-6.29-1.64c-1.86-1.09-3.31-2.63-4.35-4.63c-1.04-1.99-1.57-4.3-1.57-6.92
			C458.41,674.78,458.94,672.48,460,670.5z M479.45,672.02c-0.84-1.56-1.99-2.76-3.44-3.6c-1.45-0.84-3.05-1.26-4.79-1.26
			c-1.81,0-3.43,0.41-4.86,1.22c-1.43,0.81-2.56,1.99-3.39,3.53c-0.83,1.54-1.24,3.38-1.24,5.5c0,2.09,0.41,3.92,1.24,5.49
			c0.83,1.57,1.96,2.78,3.39,3.6c1.43,0.83,3.06,1.24,4.86,1.24c1.75,0,3.34-0.42,4.79-1.26c1.45-0.84,2.6-2.04,3.44-3.6
			c0.84-1.56,1.26-3.37,1.26-5.42C480.71,675.38,480.29,673.58,479.45,672.02z"/>
		<path class="st1" d="M507.55,660.19v12.2h12.39v2.71h-12.39v12.39h13.8v2.71h-17.07v-32.73h17.07v2.71H507.55z"/>
		<path class="st1" d="M537.85,667.43h-5.94v22.77h-3.27v-22.77h-3.55v-2.76h3.55v-1.78c0-2.78,0.71-4.82,2.13-6.13
			c1.42-1.31,3.72-1.96,6.9-1.96v2.81c-2.12,0-3.61,0.41-4.47,1.22c-0.86,0.81-1.28,2.17-1.28,4.07v1.78h5.94V667.43z"/>
		<path class="st1" d="M553.05,667.43h-5.94v22.77h-3.27v-22.77h-3.55v-2.76h3.55v-1.78c0-2.78,0.71-4.82,2.13-6.13
			c1.42-1.31,3.72-1.96,6.9-1.96v2.81c-2.12,0-3.61,0.41-4.47,1.22c-0.86,0.81-1.28,2.17-1.28,4.07v1.78h5.94V667.43z"/>
		<path class="st1" d="M558.15,659.16c-0.47-0.47-0.7-1.04-0.7-1.73c0-0.68,0.23-1.25,0.7-1.71c0.47-0.45,1.03-0.68,1.68-0.68
			c0.66,0,1.22,0.23,1.68,0.68c0.47,0.45,0.7,1.02,0.7,1.71c0,0.69-0.23,1.26-0.7,1.73c-0.47,0.47-1.03,0.7-1.68,0.7
			C559.18,659.86,558.61,659.63,558.15,659.16z M561.47,664.68v25.53h-3.27v-25.53H561.47z"/>
		<path class="st1" d="M568.99,670.5c1.06-1.98,2.53-3.51,4.4-4.58c1.87-1.08,4.01-1.61,6.41-1.61c3.15,0,5.74,0.78,7.79,2.34
			c2.04,1.56,3.36,3.68,3.95,6.36h-3.51c-0.44-1.84-1.38-3.28-2.83-4.33c-1.45-1.04-3.25-1.57-5.4-1.57c-1.72,0-3.26,0.39-4.63,1.17
			c-1.37,0.78-2.45,1.94-3.25,3.48c-0.79,1.54-1.19,3.44-1.19,5.68c0,2.25,0.4,4.15,1.19,5.71c0.8,1.56,1.88,2.73,3.25,3.51
			c1.37,0.78,2.91,1.17,4.63,1.17c2.15,0,3.95-0.52,5.4-1.57c1.45-1.04,2.39-2.5,2.83-4.37h3.51c-0.59,2.62-1.92,4.72-3.97,6.31
			c-2.06,1.59-4.64,2.38-7.76,2.38c-2.4,0-4.54-0.54-6.41-1.61s-3.34-2.6-4.4-4.58s-1.59-4.29-1.59-6.95
			C567.4,674.79,567.93,672.48,568.99,670.5z"/>
		<path class="st1" d="M597.52,659.16c-0.47-0.47-0.7-1.04-0.7-1.73c0-0.68,0.23-1.25,0.7-1.71c0.47-0.45,1.03-0.68,1.68-0.68
			c0.66,0,1.22,0.23,1.68,0.68c0.47,0.45,0.7,1.02,0.7,1.71c0,0.69-0.23,1.26-0.7,1.73c-0.47,0.47-1.03,0.7-1.68,0.7
			C598.55,659.86,597.99,659.63,597.52,659.16z M600.84,664.68v25.53h-3.27v-25.53H600.84z"/>
		<path class="st1" d="M631.28,678.7H610.1c0.09,1.93,0.56,3.59,1.4,4.96s1.95,2.41,3.32,3.11s2.87,1.05,4.49,1.05
			c2.12,0,3.91-0.51,5.35-1.54c1.45-1.03,2.41-2.42,2.88-4.16H631c-0.62,2.49-1.96,4.53-4,6.1c-2.04,1.57-4.61,2.36-7.69,2.36
			c-2.4,0-4.55-0.54-6.45-1.61c-1.9-1.08-3.39-2.6-4.47-4.58s-1.61-4.29-1.61-6.95c0-2.65,0.53-4.97,1.59-6.97
			c1.06-2,2.54-3.52,4.44-4.58c1.9-1.06,4.07-1.59,6.5-1.59c2.43,0,4.56,0.53,6.38,1.59c1.82,1.06,3.23,2.49,4.21,4.28
			c0.98,1.79,1.47,3.78,1.47,5.96C631.38,677.25,631.34,678.11,631.28,678.7z M626.91,671.18c-0.8-1.34-1.88-2.35-3.25-3.04
			c-1.37-0.68-2.87-1.03-4.49-1.03c-2.43,0-4.51,0.78-6.22,2.34c-1.71,1.56-2.66,3.76-2.85,6.59h17.96
			C628.09,674.14,627.7,672.52,626.91,671.18z"/>
		<path class="st1" d="M656.81,667.04c1.93,1.89,2.9,4.62,2.9,8.21v14.96h-3.23v-14.59c0-2.78-0.69-4.89-2.08-6.36
			c-1.39-1.47-3.28-2.2-5.68-2.2c-2.46,0-4.43,0.78-5.89,2.34c-1.47,1.56-2.2,3.85-2.2,6.88v13.93h-3.27v-25.53h3.27v4.35
			c0.81-1.56,1.98-2.75,3.51-3.58c1.53-0.83,3.26-1.24,5.19-1.24C652.39,664.21,654.88,665.15,656.81,667.04z"/>
		<path class="st1" d="M671.21,667.43v15.85c0,1.56,0.3,2.63,0.89,3.23c0.59,0.59,1.64,0.89,3.13,0.89h2.99v2.81h-3.51
			c-2.31,0-4.02-0.54-5.14-1.61c-1.12-1.07-1.68-2.84-1.68-5.31v-15.85h-3.55v-2.76h3.55v-6.41h3.32v6.41h7.01v2.76H671.21z"/>
	</g>
	<g>
		<path class="st1" d="M408.02,626.45v-81.97c0-16.79-5.98-25.33-17.65-25.33c-11.67,0-17.36,8.54-17.36,25.33v81.97h-58.63V476.73
			h58.63v18.5c8.82-14.52,22.77-21.63,41.56-21.63c34.73,0,52.09,21.63,52.09,65.18v87.67H408.02z"/>
		<path class="st1" d="M586.49,626.45v-81.97c0-16.79-5.98-25.33-17.65-25.33c-11.67,0-17.36,8.54-17.36,25.33v81.97h-58.63V476.73
			h58.63v18.5c8.82-14.52,22.77-21.63,41.56-21.63c34.73,0,52.09,21.63,52.09,65.18v87.67H586.49z"/>
		<path class="st1" d="M836.4,551.59c0,21.92-7.97,40.42-24.19,55.5c-16.23,15.09-37,22.49-62.34,22.49
			c-25.33,0-45.83-7.4-62.05-22.49c-16.22-15.09-24.48-33.59-24.48-55.5s8.25-40.42,24.48-55.5c16.23-15.09,36.72-22.49,62.05-22.49
			c25.33,0,46.11,7.4,62.34,22.49C828.43,511.17,836.4,529.67,836.4,551.59z M717.71,551.59c0,9.39,3.13,17.36,9.11,23.34
			c5.98,5.98,13.66,9.11,23.06,9.11c9.39,0,17.08-3.13,23.06-9.11c5.98-5.98,9.11-13.95,9.11-23.34s-3.13-17.36-9.11-23.34
			c-5.98-5.98-13.66-9.11-23.06-9.11c-9.39,0-17.08,3.13-23.06,9.11C720.84,534.23,717.71,542.2,717.71,551.59z"/>
		<path class="st1" d="M1120.46,476.73v18.5c8.54-14.52,22.77-21.63,42.7-21.63c20.21,0,37,7.4,50.38,21.92
			c13.38,14.8,19.92,33.59,19.92,56.07s-6.55,41.27-19.92,55.79c-13.38,14.8-30.17,22.2-50.38,22.2c-19.93,0-34.16-7.4-42.7-21.92
			v82.54h-58.63V476.73H1120.46z M1174.82,551.59c0-9.68-2.56-17.65-7.4-23.91c-5.12-6.26-11.95-9.39-20.21-9.39
			c-8.25,0-15.09,3.13-19.92,9.39c-5.12,6.26-7.68,14.23-7.68,23.91c0,9.68,2.56,17.65,7.68,23.91c4.84,6.26,11.67,9.39,19.92,9.39
			c8.26,0,15.09-3.13,20.21-9.39C1172.26,569.24,1174.82,561.27,1174.82,551.59z"/>
		<path class="st1" d="M1312.59,476.73v18.5c8.54-14.52,22.77-21.63,42.7-21.63c20.21,0,37,7.4,50.38,21.92
			c13.38,14.8,19.92,33.59,19.92,56.07s-6.55,41.27-19.92,55.79c-13.38,14.8-30.17,22.2-50.38,22.2c-19.93,0-34.16-7.4-42.7-21.92
			v82.54h-58.63V476.73H1312.59z M1366.95,551.59c0-9.68-2.56-17.65-7.4-23.91c-5.12-6.26-11.95-9.39-20.21-9.39
			c-8.25,0-15.09,3.13-19.92,9.39c-5.12,6.26-7.68,14.23-7.68,23.91c0,9.68,2.56,17.65,7.68,23.91c4.84,6.26,11.67,9.39,19.92,9.39
			c8.26,0,15.09-3.13,20.21-9.39C1364.39,569.24,1366.95,561.27,1366.95,551.59z"/>
		<path class="st1" d="M286.66,377.73l-46.83,14.17c-8.62,2.61-14.28,9.19-14.25,16.56l1.05,221.2l45.71-11.63
			c9.2-2.34,15.41-9.16,15.37-16.87L286.66,377.73z"/>
		<path class="st2" d="M1003.35,625.91h45.85l-82.86-186.86c-3.02-7.3-10.11-11.99-17.89-11.84l-16.1,0.31
			c-10.42,0.2-17.55,10.75-14.02,20.71l63.55,162.34C985.15,619.77,993.73,625.91,1003.35,625.91z"/>
		<path class="st1" d="M842.53,625.9h44.42c9.91,0,18.68-6.5,21.72-16.09l55.53-162.23c3.2-10.1-3.95-20.62-14.39-20.42l-16.48,0.09
			c-7.76,0.15-14.62,5.51-17.38,12.88L842.53,625.9z"/>
	</g>
</g>
</svg>
